<?xml version="1.0" encoding="UTF-8"?>
<svg width="141px" height="79px" viewBox="0 0 141 79" version="1.1" xmlns="http://www.w3.org/2000/svg" xmlns:xlink="http://www.w3.org/1999/xlink">
    <!-- Generator: Sketch 47.1 (45422) - http://www.bohemiancoding.com/sketch -->
    <title>Group 5</title>
    <desc>Created with Sketch.</desc>
    <defs>
        <polygon id="path-1" points="8.5 0.795779221 8.5 9.16590909 0.128896104 9.16590909 0.128896104 0.795779221 8.5 0.795779221"/>
    </defs>
    <g id="Desktop" stroke="none" stroke-width="1" fill="none" fill-rule="evenodd">
        <g id="Pop-Up---Atur-kartu-kredit" transform="translate(-680.000000, -232.000000)">
            <g id="Group-5" transform="translate(680.000000, 232.000000)">
                <g id="Page-1">
                    <path d="M132.823701,72.4149351 L130.745779,72.4149351 C128.794481,72.4149351 127.211688,71.9311688 127.211688,69.9798701 C127.211688,68.0301948 128.794481,67.5448052 130.745779,67.5448052 L131.037987,67.5448052 C132.990909,67.5448052 134.572078,65.4376623 134.572078,63.4863636 C134.572078,61.5366883 132.990909,59.4279221 131.037987,59.4279221 L121.823701,59.4279221 C119.870779,59.4279221 118.291234,57.3207792 118.291234,55.3694805 C118.291234,53.4198052 119.870779,51.311039 121.823701,51.311039 L122.563961,51.311039 C124.51526,51.311039 126.096429,50.0155844 126.096429,48.0642857 C126.096429,46.1146104 124.51526,44.8175325 122.563961,44.8175325 L106.151623,44.8175325 C106.156494,44.9084416 106.180844,44.9961039 106.180844,45.0886364 L106.180844,52.0318182 C107.156494,52.8175325 107.809091,54.1211039 107.809091,55.3694805 C107.809091,57.3207792 106.226299,59.4279221 104.275,59.4279221 L84.9,59.4279221 C84.4373377,59.7948052 83.9097403,60.0983766 83.3399351,60.324026 C80.3577922,61.5058442 77.124026,61.0675325 74.0071429,61.0285714 C73.9292208,61.0269481 73.8561688,61.0155844 73.7798701,61.0090909 C73.1029221,61.4100649 72.3464286,61.6422078 71.5704545,61.5691558 C71.2685065,61.5415584 70.9665584,61.5188312 70.662987,61.4928571 C70.3269481,62.1146104 70.1159091,62.8045455 70.1159091,63.4863636 C70.1159091,65.4376623 71.6970779,67.5448052 73.6483766,67.5448052 L86.137013,67.5448052 C85.8821429,67.5448052 88.1808442,68.1422078 88.1808442,69.837013 C88.1808442,71.5318182 86.9876623,72.7607143 85.3935065,73.1113636 C85.4811688,73.1292208 82.6045455,74.2087662 82.6045455,75.9977273 C82.6045455,77.949026 84.1857143,78.9084416 86.137013,78.9084416 L106.950325,78.9084416 C108.903247,78.9084416 110.484416,77.612987 110.484416,75.6616883 C110.484416,73.712013 108.903247,72.4149351 106.950325,72.4149351 L102.641883,72.4149351 C100.690584,72.4149351 99.1094156,71.0805195 99.1094156,69.1292208 C99.1094156,67.1779221 100.690584,65.7006494 102.641883,65.7006494 C102.641883,65.7006494 120.580195,65.7899351 120.40974,65.8159091 C122.112662,66.074026 123.419481,67.6016234 123.419481,69.375974 C123.419481,71.1503247 122.112662,72.6600649 120.40974,72.9181818 C120.580195,72.9441558 120.752273,72.9717532 120.930844,72.9717532 C118.979545,72.9717532 117.398377,73.9896104 117.398377,75.9392857 C117.398377,77.8905844 118.979545,78.9084416 120.930844,78.9084416 L132.823701,78.9084416 C134.775,78.9084416 136.356169,77.612987 136.356169,75.6616883 C136.356169,73.712013 134.775,72.4149351 132.823701,72.4149351" id="Fill-1" fill="#E3E3E3"/>
                    <path d="M34.238474,33.4538961 L42.7206169,33.4538961 C42.5079545,31.6616883 42.6524351,29.7461039 43.0939935,27.9441558 C43.061526,27.7087662 43.0323052,27.4733766 43.0436688,27.2314935 C43.2530844,22.9409091 46.3456169,20.138961 50.5988636,20.0675325 C50.9024351,20.0626623 51.2060065,20.0756494 51.5063312,20.0918831 C51.8050325,18.6032468 52.9349026,17.3467532 54.3910714,17.0269481 C54.1329545,16.9717532 53.8683442,16.8840909 53.5956169,16.8840909 C55.6784091,16.8840909 57.3650974,15.0756494 57.3650974,12.9928571 C57.3650974,10.9100649 55.6784091,9.10324675 53.5956169,9.10324675 L31.3813312,9.10324675 C29.3001623,9.10324675 27.6118506,11.0788961 27.6118506,13.1616883 C27.6118506,15.2428571 29.3001623,17.2201299 31.3813312,17.2201299 L35.9803571,17.2201299 C38.0631494,17.2201299 39.751461,18.7493506 39.751461,20.8337662 C39.751461,22.9149351 38.0631494,24.5431818 35.9803571,24.5431818 C35.9803571,24.5431818 16.8375,24.475 17.0193182,24.4474026 C15.2011364,24.1730519 13.8066558,22.5545455 13.8066558,20.6616883 C13.8066558,18.7688312 15.2011364,17.1633117 17.0193182,16.8873377 C16.8375,16.8597403 16.6524351,16.8353896 16.4625,16.8353896 C18.5452922,16.8353896 20.2336039,15.0512987 20.2336039,12.9685065 C20.2336039,10.8857143 18.5452922,9.10324675 16.4625,9.10324675 L3.76931818,9.10324675 C1.68814935,9.10324675 -0.000162337662,11.0788961 -0.000162337662,13.1616883 C-0.000162337662,15.2428571 1.68814935,17.2201299 3.76931818,17.2201299 L5.98847403,17.2201299 C8.07126623,17.2201299 9.75957792,19.1957792 9.75957792,21.2785714 C9.75957792,23.3597403 8.07126623,25.337013 5.98847403,25.337013 L5.67516234,25.337013 C3.59237013,25.337013 1.90405844,27.3126623 1.90405844,29.3954545 C1.90405844,31.4766234 3.59237013,33.4538961 5.67516234,33.4538961 L15.5095779,33.4538961 C17.5939935,33.4538961 19.2806818,33.8061688 19.2806818,35.888961 C19.2806818,37.9701299 17.5939935,38.324026 15.5095779,38.324026 L14.7206169,38.324026 C12.6362013,38.324026 10.949513,40.2996753 10.949513,42.3824675 C10.949513,44.4636364 12.6362013,46.4409091 14.7206169,46.4409091 L36.9332792,46.4409091 C39.0160714,46.4409091 40.7027597,44.4636364 40.7027597,42.3824675 C40.7027597,40.2996753 39.0160714,38.324026 36.9332792,38.324026 L34.238474,38.324026 C32.1556818,38.324026 30.4673701,37.9701299 30.4673701,35.888961 C30.4673701,33.8061688 32.1556818,33.4538961 34.238474,33.4538961" id="Fill-3" fill="#E3E3E3"/>
                    <g id="Group-4" transform="translate(72.500000, 39.500000) rotate(4.000000) translate(-72.500000, -39.500000) translate(37.000000, 15.000000)">
                        <path d="M10.8160714,9.05373377 L68.0027597,5.31834416 C67.8988636,3.69821429 65.499513,0.600811688 62.8274351,0.776136364 L5.63912338,4.51152597 C2.96704545,4.68685065 0.658603896,7.70795455 0.832305195,10.3800325 L3.01899351,43.8459416 C3.19269481,46.5196429 6.57581169,48.4936688 8.19594156,48.3881494 L6.01087662,14.9222403 C5.83555195,12.2501623 8.14399351,9.22743506 10.8160714,9.05373377" id="Fill-6" fill="#F2F2F2"/>
                        <path d="M16.9282468,47.1102273 L7.56136364,47.7222403 C4.88928571,47.8959416 2.55974026,45.8537338 2.38603896,43.1800325 L0.244805195,10.4186688 C0.0711038961,7.74496753 2.11493506,5.41542208 4.78701299,5.24172078 L51.8178571,2.16866883" id="Stroke-8" stroke="#878585" stroke-linecap="round" stroke-linejoin="round"/>
                        <path d="M24.5957792,46.6108766 L20.9788961,46.8478896" id="Stroke-10" stroke="#878585" stroke-linecap="round" stroke-linejoin="round"/>
                        <path d="M56.6772727,1.85227273 L62.8688312,1.44805195 C65.5425325,1.27272727 67.8720779,3.31655844 68.0474026,5.99025974 L70.187013,38.7516234 C70.3623377,41.4253247 68.3185065,43.7548701 65.6448052,43.9285714 L28.9678571,46.3246753" id="Stroke-12" stroke="#878585" stroke-linecap="round" stroke-linejoin="round"/>
                        <path d="M10.6345779,35.9084416 L20.350487,35.1681818" id="Stroke-14" stroke="#878585" stroke-linecap="round" stroke-linejoin="round"/>
                        <path d="M25.213961,34.9555195 L34.9331169,34.3207792" id="Stroke-16" stroke="#878585" stroke-linecap="round" stroke-linejoin="round"/>
                        <path d="M41.4168831,34.0027597 L51.136039,33.3680195" id="Stroke-18" stroke="#878585" stroke-linecap="round" stroke-linejoin="round"/>
                        <path d="M54.3722403,33.0516234 L64.0913961,32.4152597" id="Stroke-20" stroke="#878585" stroke-linecap="round" stroke-linejoin="round"/>
                        <path d="M19.5021104,11.3334416 C18.0621753,11.4275974 16.8381494,12.1905844 16.0702922,13.2896104 C15.1676948,12.300974 13.8543831,11.7019481 12.4144481,11.7961039 C9.89821429,11.9600649 7.99237013,14.1337662 8.15633117,16.65 C8.32029221,19.1662338 10.4939935,21.0720779 13.0102273,20.9081169 C14.4501623,20.813961 15.6741883,20.0493506 16.4404221,18.9519481 C17.3430195,19.9405844 18.6563312,20.5396104 20.0978896,20.4454545 C22.6141234,20.2814935 24.5199675,18.1077922 24.3560065,15.5915584 C24.1920455,13.0753247 22.0183442,11.1678571 19.5021104,11.3334416 Z" id="Stroke-22" stroke="#878585" stroke-width="0.75" stroke-linecap="round" stroke-linejoin="round"/>
                    </g>
                    <path d="M119.50211,68.0600649 C119.192045,68.0584416 118.938799,68.3068182 118.935552,68.6201299 L118.935552,68.6266234 L118.935552,69.7207792 C118.959903,70.0340909 119.23263,70.2662338 119.544318,70.2435065 C119.821916,70.2224026 120.044318,70 120.065422,69.7207792 L120.065422,68.612013 C120.060552,68.3051948 119.808929,68.0600649 119.50211,68.0600649" id="Fill-24" fill="#878686"/>
                    <path d="M119.50211,72.8207792 C119.192045,72.8191558 118.938799,73.0691558 118.935552,73.3808442 L118.935552,73.3873377 L118.935552,74.4961039 C118.912825,74.8077922 119.146591,75.0805195 119.458279,75.1032468 C119.769968,75.1275974 120.041071,74.8938312 120.065422,74.5821429 C120.068669,74.5529221 120.068669,74.5253247 120.065422,74.4961039 L120.065422,73.3873377 C120.068669,73.0756494 119.817045,72.8224026 119.506981,72.8207792 L119.50211,72.8207792 Z" id="Fill-26" fill="#878686"/>
                    <path d="M117.674188,70.9928571 L116.565422,70.9928571 C116.253734,71.0172078 116.019968,71.2899351 116.044318,71.6 C116.065422,71.8792208 116.287825,72.1016234 116.565422,72.1211039 L117.674188,72.1211039 C117.985877,72.0983766 118.219643,71.8272727 118.195292,71.513961 C118.175812,71.2347403 117.953409,71.0155844 117.674188,70.9928571" id="Fill-28" fill="#878686"/>
                    <path d="M122.436526,70.9928571 L121.331006,70.9928571 C121.019318,70.9685065 120.746591,71.2038961 120.72224,71.513961 C120.699513,71.8272727 120.933279,72.0983766 121.244968,72.1211039 C121.272565,72.1243506 121.301786,72.1243506 121.331006,72.1211039 L122.439773,72.1211039 C122.751461,72.1454545 123.022565,71.9116883 123.046916,71.6 C123.071266,71.2899351 122.8375,71.0172078 122.525812,70.9928571 C122.496591,70.9912338 122.468994,70.9912338 122.439773,70.9928571 L122.436526,70.9928571 Z" id="Fill-30" fill="#878686"/>
                    <g id="Group-2" transform="translate(108.857143, 0.000000)" fill="#878686">
                        <path d="M7.75503247,0.000324675325 C7.22743506,-0.00292207792 6.79561688,0.422402597 6.79237013,0.95 L6.79237013,0.961363636 L6.79237013,4.50032468 C6.75340909,5.03116883 7.14951299,5.49220779 7.67873377,5.53279221 C8.20957792,5.57337662 8.67061688,5.17564935 8.71282468,4.64642857 C8.71607143,4.59772727 8.71607143,4.54902597 8.71282468,4.50032468 L8.71282468,0.961363636 C8.71444805,0.433766234 8.28912338,0.00357142857 7.76152597,0.000324675325 L7.75503247,0.000324675325 Z" id="Fill-32"/>
                        <path d="M7.75503247,9.75324675 C7.22743506,9.75 6.79561688,10.1753247 6.79237013,10.7045455 L6.79237013,10.7159091 L6.79237013,14.2597403 C6.75340909,14.788961 7.14951299,15.2516234 7.67873377,15.2922078 C8.20957792,15.3327922 8.67061688,14.9350649 8.71282468,14.4058442 C8.71607143,14.3555195 8.71607143,14.3084416 8.71282468,14.2597403 L8.71282468,10.7159091 C8.71444805,10.1866883 8.28912338,9.75649351 7.76152597,9.75324675 L7.75503247,9.75324675 Z" id="Fill-34"/>
                        <path d="M4.64788961,6.6349026 L1.10892857,6.6349026 C0.579707792,6.59431818 0.117045455,6.99204545 0.0780844156,7.52126623 C0.0375,8.05048701 0.433603896,8.51314935 0.962824675,8.55373377 C1.01314935,8.55698052 1.06185065,8.55698052 1.10892857,8.55373377 L4.65438312,8.55373377 C5.1836039,8.59431818 5.64464286,8.19659091 5.68685065,7.66737013 C5.72581169,7.13814935 5.32970779,6.67548701 4.80048701,6.6349026 C4.75016234,6.63165584 4.70146104,6.63165584 4.65438312,6.6349026 L4.64788961,6.6349026 Z" id="Fill-36"/>
                        <path d="M10.8623377,8.56428571 L14.4077922,8.56428571 C14.937013,8.5237013 15.3331169,8.06266234 15.2925325,7.53181818 C15.2568182,7.05779221 14.8818182,6.68116883 14.4077922,6.64545455 L10.8623377,6.64545455 C10.3331169,6.68603896 9.93701299,7.1487013 9.97597403,7.67792208 C10.0133117,8.15194805 10.3883117,8.52857143 10.8623377,8.56428571" id="Fill-38"/>
                    </g>
                    <g id="Group-3" transform="translate(18.571429, 57.142857)" fill="#878686">
                        <path d="M7.9637987,0.779058442 C7.43457792,0.775811688 7.00438312,1.20275974 7.00113636,1.73035714 L7.00113636,1.74172078 L7.00113636,5.28555195 C7.04172078,5.8163961 7.50438312,6.2125 8.0336039,6.17191558 C8.50762987,6.1362013 8.88425325,5.75957792 8.91996753,5.28555195 L8.91996753,1.74172078 C8.92321429,1.21412338 8.49788961,0.782305195 7.96866883,0.779058442 L7.9637987,0.779058442 Z" id="Fill-40"/>
                        <path d="M7.9637987,10.5319805 C7.43457792,10.5287338 7.00438312,10.9556818 7.00113636,11.4832792 L7.00113636,11.4946429 L7.00113636,15.038474 C6.96055195,15.5693182 7.35827922,16.0319805 7.8875,16.0709416 C8.41834416,16.111526 8.87938312,15.7137987 8.91996753,15.1845779 C8.92321429,15.1358766 8.92321429,15.0871753 8.91996753,15.038474 L8.91996753,11.4946429 C8.92321429,10.9670455 8.49788961,10.5352273 7.96866883,10.5319805 L7.9637987,10.5319805 Z" id="Fill-42"/>
                        <path d="M4.86136364,7.41363636 L1.3288961,7.41363636 C0.799675325,7.45422078 0.401948052,7.91688312 0.442532468,8.4461039 C0.478246753,8.92012987 0.85487013,9.29675325 1.3288961,9.33409091 L4.87272727,9.33409091 C5.40194805,9.37305195 5.86461039,8.97694805 5.90519481,8.4461039 C5.94415584,7.91688312 5.54805195,7.45422078 5.01883117,7.41363636 C4.97012987,7.41038961 4.92142857,7.41038961 4.87272727,7.41363636 L4.86136364,7.41363636 Z" id="Fill-44"/>
                        <path d="M14.5983766,7.41363636 L11.0772727,7.41363636 C10.5464286,7.45422078 10.1503247,7.91688312 10.1892857,8.4461039 C10.2266234,8.92012987 10.6032468,9.29675325 11.0772727,9.33409091 L14.5983766,9.33409091 C15.1275974,9.37305195 15.5902597,8.97694805 15.6308442,8.4461039 C15.6714286,7.91688312 15.2737013,7.45422078 14.7444805,7.41363636 C14.6957792,7.41038961 14.6470779,7.41038961 14.5983766,7.41363636" id="Fill-46"/>
                    </g>
                    <path d="M26.6105519,17.5775974 C27.1527597,17.5743506 27.6917208,17.463961 28.1917208,17.2512987 C29.6397727,15.7204545 29.5732143,13.3064935 28.0423701,11.8584416 C26.5667208,10.4607143 24.2534091,10.4672078 22.7842532,11.8714286 C21.9141234,13.9801948 22.9173701,16.3941558 25.0261364,17.2642857 C25.5277597,17.4720779 26.0667208,17.5775974 26.6105519,17.5775974" id="Fill-48" fill="#F2F2F2"/>
                    <path d="M26.6105519,7.64707792 C23.4092532,7.64707792 20.8167208,10.2412338 20.8167208,13.4425325 C20.8167208,16.6422078 23.4108766,19.2363636 26.6105519,19.2363636 C27.8443182,19.2363636 29.0439935,18.8418831 30.0375,18.112987 C30.4076299,17.8418831 30.4871753,17.3207792 30.2144481,16.9522727 C29.9433442,16.5821429 29.4238636,16.5042208 29.0537338,16.7753247 C27.2144481,18.1292208 24.6251623,17.7331169 23.2728896,15.8922078 C21.9189935,14.0512987 22.3150974,11.4636364 24.1560065,10.1113636 C25.9969156,8.75909091 28.5845779,9.15357143 29.9368506,10.9944805 C30.4628247,11.7071429 30.7436688,12.5724026 30.7404221,13.4587662 C30.7404221,13.9165584 31.1105519,14.2866883 31.5699675,14.2866883 C32.0277597,14.2866883 32.399513,13.9165584 32.399513,13.4587662 C32.4043831,10.2542208 29.813474,7.65357143 26.6105519,7.64707792" id="Fill-50" fill="#878686"/>
                    <path d="M138.432468,50.5183442 C138.153247,50.5183442 137.89513,50.3803571 137.740909,50.1482143 C136.557468,50.9323052 136.232792,52.526461 137.01526,53.711526 C137.781494,54.8673701 139.323701,55.2099026 140.503896,54.4826299 C141.305844,53.3430195 141.02987,51.7699675 139.89026,50.9712662 C139.463312,50.6709416 138.953571,50.5118506 138.432468,50.513474 L138.432468,50.5183442 Z" id="Fill-52" fill="#F2F2F2"/>
                    <g id="Group-56" transform="translate(129.116883, 48.064286)">
                        <mask id="mask-2" fill="white">
                            <use xlink:href="#path-1"/>
                        </mask>
                        <g id="Clip-55"/>
                        <path d="M4.31558442,0.795779221 C3.85779221,0.795779221 3.48441558,1.16753247 3.48441558,1.62532468 C3.48441558,2.08311688 3.85779221,2.45324675 4.31558442,2.45324675 C5.71006494,2.45324675 6.84155844,3.58636364 6.84155844,4.98084416 C6.84155844,6.37694805 5.71006494,7.50844156 4.31558442,7.50844156 C2.91948052,7.50844156 1.78798701,6.37694805 1.78798701,4.98084416 C1.78798701,4.52305195 1.41623377,4.1512987 0.960064935,4.1512987 C0.500649351,4.1512987 0.128896104,4.52305195 0.128896104,4.98084416 C0.128896104,7.29253247 2.00227273,9.16590909 4.31558442,9.16590909 C6.62727273,9.16590909 8.50064935,7.29253247 8.50064935,4.98084416 C8.50064935,2.66915584 6.62727273,0.795779221 4.31558442,0.795779221" id="Fill-54" fill="#878686" mask="url(#mask-2)"/>
                    </g>
                </g>
            </g>
        </g>
    </g>
</svg>