<svg xmlns="http://www.w3.org/2000/svg" xmlns:xlink="http://www.w3.org/1999/xlink" width="40" height="40" viewBox="0 0 40 40">
    <defs>
        <path id="a" d="M0 .202h32V23H0z"/>
        <path id="c" d="M0 0h18.823v16.838H0z"/>
    </defs>
    <g fill="none" fill-rule="evenodd">
        <path fill="#42B549" d="M24.62 18.784c-.656 0-1.183.55-1.183 1.312v.021c0 .773.527 1.322 1.183 1.322.666 0 1.193-.537 1.193-1.322v-.02c0-.764-.527-1.313-1.193-1.313"/>
        <g transform="translate(4 9)">
            <mask id="b" fill="#fff">
                <use xlink:href="#a"/>
            </mask>
            <path fill="#42B549" d="M23.823 11.106c0 1.892-1.193 3.041-2.569 3.041-.88 0-1.397-.396-1.774-.838v2.43h-2.043V8.204h2.043v.773c.398-.483.893-.903 1.763-.903 1.387 0 2.58 1.151 2.58 3.01v.022zM30.947.467a2.429 2.429 0 0 0-1.12-.265c-.35 0-.699.071-1.015.212-1.476.664-3.059.988-4.839.988-1.67 0-3.384-.279-5.155-.646.001.028.005.055.005.082 0 2.955-.866 5.702-2.34 8.023.003.068.016.131.016.202v.022c0 1.15-.613 1.914-1.548 2.311l1.795 2.623H14.34l-1.037-1.559c-.443.362-.912.69-1.393 1v.56h-.92a14.93 14.93 0 0 1-7.166 1.818A15.01 15.01 0 0 1 0 15.33v4.012c0 .203.03.401.08.59v.102c0 .632.4 1.215 1.053 1.541a2.5 2.5 0 0 0 1.12.257c.35 0 .698-.067 1.014-.204 1.476-.647 3.06-.962 4.84-.962 2.374 0 4.825.537 7.415 1.107 2.618.576 5.323 1.163 8.122 1.218.112.002.22.01.331.01h.08c.046 0 .091-.006.135-.007.34-.004.671-.019 1-.045.202-.01.411-.009.61-.027-.11.004-.222.001-.33.003a13.879 13.879 0 0 0 5.372-1.622A2.219 2.219 0 0 0 32 19.342V2.053c0-.65-.4-1.25-1.053-1.587z" mask="url(#b)"/>
        </g>
        <path fill="#5BD35B" d="M16.8 20.74h-.891v1.72c.482-.31.95-.638 1.393-.999l-.48-.72H16.8z"/>
        <g transform="translate(4 8)">
            <mask id="d" fill="#fff">
                <use xlink:href="#c"/>
            </mask>
            <path fill="#5BD35B" d="M10.988 15.02H9.823V7.495h3.56c1.15 0 1.944.3 2.45.817.397.389.61.907.65 1.55a14.908 14.908 0 0 0 2.34-8.024c0-.026-.004-.054-.005-.082a130.59 130.59 0 0 1-2.262-.492C13.81.642 10.97 0 8.023 0c-.458 0-.904.025-1.346.063C6.547.07 6.41.07 6.28.08c.07-.003.14 0 .21-.003-1.9.185-3.658.714-5.332 1.617A2.229 2.229 0 0 0 0 3.66v12.67a15.01 15.01 0 0 0 3.823.51 14.93 14.93 0 0 0 7.165-1.82" mask="url(#d)"/>
        </g>
        <path fill="#5BD35B" d="M17.274 17.3H15.91v1.807h1.376c.71 0 1.117-.344 1.117-.893v-.02c0-.592-.43-.894-1.128-.894"/>
        <path fill-rule="nonzero" d="M0 0h40v40H0z"/>
    </g>
</svg>
